# https://github.com/mikedh/trimesh

o Bin
v -0.04500000 0.05000000 0.00000000
v -0.04500000 0.05000000 0.03000000
v 0.04500000 0.05000000 0.03000000
v 0.04500000 0.05000000 0.00000000
v 0.04552272 0.04998125 0.00000000
v 0.04516820 0.04999937 0.03000000
v 0.04613519 0.04994158 0.00000000
v 0.04596062 0.04996554 0.00000000
v 0.04597065 0.04996546 0.03000000
v 0.04552277 0.04998439 0.03000000
v 0.04664553 0.04985200 0.00000000
v 0.04644596 0.04989894 0.00000000
v 0.04649508 0.04988958 0.03000000
v 0.04613516 0.04994166 0.03000000
v 0.04711562 0.04972226 0.00000000
v 0.04693481 0.04978397 0.00000000
v 0.04696968 0.04977400 0.03000000
v 0.04664570 0.04985290 0.03000000
v 0.04754362 0.04955814 0.00000000
v 0.04738243 0.04963120 0.00000000
v 0.04741027 0.04962103 0.03000000
v 0.04711592 0.04972322 0.03000000
v 0.04792435 0.04936801 0.00000000
v 0.04778279 0.04944973 0.00000000
v 0.04780562 0.04943825 0.03000000
v 0.04754406 0.04955918 0.03000000
v 0.04825653 0.04915758 0.00000000
v 0.04812950 0.04924959 0.00000000
v 0.04815285 0.04923387 0.03000000
v 0.04792448 0.04936829 0.03000000
v 0.04854723 0.04893214 0.03000000
v 0.04854731 0.04893225 0.00000000
v 0.04846492 0.04900665 0.00000000
v 0.04825691 0.04915812 0.03000000
v 0.04846070 0.04900974 0.03000000
v 0.04881853 0.04867325 0.03000000
v 0.04881884 0.04867356 0.00000000
v 0.04875514 0.04874459 0.00000000
v 0.04874459 0.04875514 0.03000000
v 0.04906269 0.04838754 0.03000000
v 0.04906290 0.04838768 0.00000000
v 0.04900974 0.04846070 0.00000000
v 0.04900665 0.04846492 0.03000000
v 0.04928150 0.04807194 0.00000000
v 0.04923387 0.04815285 0.00000000
v 0.04924959 0.04812950 0.03000000
v 0.04947966 0.04771605 0.00000000
v 0.04943825 0.04780562 0.00000000
v 0.04944973 0.04778279 0.03000000
v 0.04928247 0.04807253 0.03000000
v 0.04965426 0.04731456 0.00000000
v 0.04962103 0.04741027 0.00000000
v 0.04963120 0.04738243 0.03000000
v 0.04947992 0.04771619 0.03000000
v 0.04979855 0.04686885 0.00000000
v 0.04977400 0.04696968 0.00000000
v 0.04978397 0.04693481 0.03000000
v 0.04965435 0.04731461 0.03000000
v 0.04990536 0.04638605 0.00000000
v 0.04988958 0.04649508 0.00000000
v 0.04989894 0.04644596 0.03000000
v 0.04979943 0.04686909 0.03000000
v 0.04996970 0.04587039 0.00000000
v 0.04996546 0.04597065 0.00000000
v 0.04996554 0.04596062 0.03000000
v 0.04990712 0.04638632 0.03000000
v 0.04996877 0.04587038 0.03000000
v 0.05000000 0.04500000 0.03000000
v 0.04999937 0.04516820 0.00000000
v 0.05000000 0.04500000 0.00000000
v 0.05000000 -0.04500000 0.03000000
v 0.05000000 -0.04500000 0.00000000
v 0.04552272 -0.04998125 0.03000000
v 0.04500000 -0.05000000 0.03000000
v 0.04516820 -0.04999937 0.00000000
v 0.04500000 -0.05000000 0.00000000
v 0.04613519 -0.04994158 0.03000000
v 0.04596062 -0.04996554 0.03000000
v 0.04597065 -0.04996546 0.00000000
v 0.04552277 -0.04998439 0.00000000
v 0.04664553 -0.04985200 0.03000000
v 0.04644596 -0.04989894 0.03000000
v 0.04649508 -0.04988958 0.00000000
v 0.04613516 -0.04994166 0.00000000
v 0.04711562 -0.04972226 0.03000000
v 0.04693481 -0.04978397 0.03000000
v 0.04696968 -0.04977400 0.00000000
v 0.04664570 -0.04985290 0.00000000
v 0.04754362 -0.04955814 0.03000000
v 0.04738243 -0.04963120 0.03000000
v 0.04741027 -0.04962103 0.00000000
v 0.04711592 -0.04972322 0.00000000
v 0.04792435 -0.04936801 0.03000000
v 0.04778279 -0.04944973 0.03000000
v 0.04780562 -0.04943825 0.00000000
v 0.04754406 -0.04955918 0.00000000
v 0.04825653 -0.04915758 0.03000000
v 0.04812950 -0.04924959 0.03000000
v 0.04815285 -0.04923387 0.00000000
v 0.04792448 -0.04936829 0.00000000
v 0.04854723 -0.04893214 0.00000000
v 0.04854731 -0.04893225 0.03000000
v 0.04846492 -0.04900665 0.03000000
v 0.04825691 -0.04915812 0.00000000
v 0.04846070 -0.04900974 0.00000000
v 0.04881853 -0.04867325 0.00000000
v 0.04881884 -0.04867356 0.03000000
v 0.04875514 -0.04874459 0.03000000
v 0.04874459 -0.04875514 0.00000000
v 0.04906269 -0.04838754 0.00000000
v 0.04906290 -0.04838768 0.03000000
v 0.04900974 -0.04846070 0.03000000
v 0.04900665 -0.04846492 0.00000000
v 0.04928150 -0.04807194 0.03000000
v 0.04923387 -0.04815285 0.03000000
v 0.04924959 -0.04812950 0.00000000
v 0.04947966 -0.04771605 0.03000000
v 0.04943825 -0.04780562 0.03000000
v 0.04944973 -0.04778279 0.00000000
v 0.04928247 -0.04807253 0.00000000
v 0.04965426 -0.04731456 0.03000000
v 0.04962103 -0.04741027 0.03000000
v 0.04963120 -0.04738243 0.00000000
v 0.04947992 -0.04771619 0.00000000
v 0.04979855 -0.04686885 0.03000000
v 0.04977400 -0.04696968 0.03000000
v 0.04978397 -0.04693481 0.00000000
v 0.04965435 -0.04731461 0.00000000
v 0.04990536 -0.04638605 0.03000000
v 0.04988958 -0.04649508 0.03000000
v 0.04989894 -0.04644596 0.00000000
v 0.04979943 -0.04686909 0.00000000
v 0.04996970 -0.04587039 0.03000000
v 0.04996546 -0.04597065 0.03000000
v 0.04996554 -0.04596062 0.00000000
v 0.04990712 -0.04638632 0.00000000
v 0.04996877 -0.04587038 0.00000000
v 0.04999937 -0.04516820 0.03000000
v -0.04500000 -0.05000000 0.03000000
v -0.04500000 -0.05000000 0.00000000
v -0.04754406 0.04955918 0.00000000
v -0.04881884 -0.04867356 0.00000000
v -0.04906269 0.04838754 0.00000000
v -0.04552277 0.04998439 0.00000000
v -0.04516820 0.04999937 0.00000000
v -0.04965435 0.04731461 0.00000000
v -0.04963120 0.04738243 0.00000000
v -0.04990712 0.04638632 0.00000000
v -0.04989894 0.04644596 0.00000000
v -0.04965426 -0.04731456 0.00000000
v -0.04977400 -0.04696968 0.00000000
v -0.04613516 0.04994166 0.00000000
v -0.04597065 0.04996546 0.00000000
v -0.04741027 0.04962103 0.00000000
v -0.04711592 0.04972322 0.00000000
v -0.04881853 0.04867325 0.00000000
v -0.04874459 0.04875514 0.00000000
v -0.05000000 0.04500000 0.00000000
v -0.04979943 0.04686909 0.00000000
v -0.04996877 0.04587038 0.00000000
v -0.04947966 -0.04771605 0.00000000
v -0.04906290 -0.04838768 0.00000000
v -0.04923387 -0.04815285 0.00000000
v -0.04664553 -0.04985200 0.00000000
v -0.04854731 -0.04893225 0.00000000
v -0.04875514 -0.04874459 0.00000000
v -0.04825653 -0.04915758 0.00000000
v -0.04846492 -0.04900665 0.00000000
v -0.04792435 -0.04936801 0.00000000
v -0.04711562 -0.04972226 0.00000000
v -0.04754362 -0.04955814 0.00000000
v -0.04613519 -0.04994158 0.00000000
v -0.04644596 -0.04989894 0.00000000
v -0.04552272 -0.04998125 0.00000000
v -0.04596062 -0.04996554 0.00000000
v -0.04664570 0.04985290 0.00000000
v -0.04792448 0.04936829 0.00000000
v -0.04780562 0.04943825 0.00000000
v -0.04978397 0.04693481 0.00000000
v -0.04996554 0.04596062 0.00000000
v -0.04979855 -0.04686885 0.00000000
v -0.04988958 -0.04649508 0.00000000
v -0.04962103 -0.04741027 0.00000000
v -0.04928150 -0.04807194 0.00000000
v -0.04943825 -0.04780562 0.00000000
v -0.04812950 -0.04924959 0.00000000
v -0.04738243 -0.04963120 0.00000000
v -0.04693481 -0.04978397 0.00000000
v -0.04696968 0.04977400 0.00000000
v -0.04825691 0.04915812 0.00000000
v -0.04854723 0.04893214 0.00000000
v -0.04846070 0.04900974 0.00000000
v -0.04900665 0.04846492 0.00000000
v -0.04928247 0.04807253 0.00000000
v -0.04924959 0.04812950 0.00000000
v -0.04990536 -0.04638605 0.00000000
v -0.04996546 -0.04597065 0.00000000
v -0.04649508 0.04988958 0.00000000
v -0.04815285 0.04923387 0.00000000
v -0.04947992 0.04771619 0.00000000
v -0.04996970 -0.04587039 0.00000000
v -0.04999937 -0.04516820 0.00000000
v -0.04900974 -0.04846070 0.00000000
v -0.04778279 -0.04944973 0.00000000
v -0.04944973 0.04778279 0.00000000
v -0.05000000 -0.04500000 0.00000000
v -0.05000000 0.04500000 0.03000000
v -0.05000000 -0.04500000 0.03000000
v -0.04516820 -0.04999937 0.03000000
v -0.04597065 -0.04996546 0.03000000
v -0.04552277 -0.04998439 0.03000000
v -0.04649508 -0.04988958 0.03000000
v -0.04613516 -0.04994166 0.03000000
v -0.04696968 -0.04977400 0.03000000
v -0.04664570 -0.04985290 0.03000000
v -0.04741027 -0.04962103 0.03000000
v -0.04711592 -0.04972322 0.03000000
v -0.04780562 -0.04943825 0.03000000
v -0.04754406 -0.04955918 0.03000000
v -0.04815285 -0.04923387 0.03000000
v -0.04792448 -0.04936829 0.03000000
v -0.04854723 -0.04893214 0.03000000
v -0.04825691 -0.04915812 0.03000000
v -0.04846070 -0.04900974 0.03000000
v -0.04881853 -0.04867325 0.03000000
v -0.04874459 -0.04875514 0.03000000
v -0.04906269 -0.04838754 0.03000000
v -0.04900665 -0.04846492 0.03000000
v -0.04924959 -0.04812950 0.03000000
v -0.04944973 -0.04778279 0.03000000
v -0.04928247 -0.04807253 0.03000000
v -0.04963120 -0.04738243 0.03000000
v -0.04947992 -0.04771619 0.03000000
v -0.04978397 -0.04693481 0.03000000
v -0.04965435 -0.04731461 0.03000000
v -0.04989894 -0.04644596 0.03000000
v -0.04979943 -0.04686909 0.03000000
v -0.04996554 -0.04596062 0.03000000
v -0.04990712 -0.04638632 0.03000000
v -0.04996877 -0.04587038 0.03000000
v -0.04552272 0.04998125 0.03000000
v -0.04613519 0.04994158 0.03000000
v -0.04596062 0.04996554 0.03000000
v -0.04664553 0.04985200 0.03000000
v -0.04644596 0.04989894 0.03000000
v -0.04711562 0.04972226 0.03000000
v -0.04693481 0.04978397 0.03000000
v -0.04754362 0.04955814 0.03000000
v -0.04738243 0.04963120 0.03000000
v -0.04792435 0.04936801 0.03000000
v -0.04778279 0.04944973 0.03000000
v -0.04825653 0.04915758 0.03000000
v -0.04812950 0.04924959 0.03000000
v -0.04854731 0.04893225 0.03000000
v -0.04846492 0.04900665 0.03000000
v -0.04881884 0.04867356 0.03000000
v -0.04875514 0.04874459 0.03000000
v -0.04906290 0.04838768 0.03000000
v -0.04900974 0.04846070 0.03000000
v -0.04928150 0.04807194 0.03000000
v -0.04923387 0.04815285 0.03000000
v -0.04947966 0.04771605 0.03000000
v -0.04943825 0.04780562 0.03000000
v -0.04965426 0.04731456 0.03000000
v -0.04962103 0.04741027 0.03000000
v -0.04979855 0.04686885 0.03000000
v -0.04977400 0.04696968 0.03000000
v -0.04990536 0.04638605 0.03000000
v -0.04988958 0.04649508 0.03000000
v -0.04996970 0.04587039 0.03000000
v -0.04996546 0.04597065 0.03000000
v -0.04999937 0.04516820 0.03000000
v 0.04629874 0.04788459 0.03000000
v 0.04657030 0.04780056 0.03000000
v 0.04599089 0.04794786 0.03000000
v 0.04680424 0.04770233 0.03000000
v -0.04599089 0.04794786 0.03000000
v -0.04629874 0.04788459 0.03000000
v -0.04781610 0.04652656 0.03000000
v -0.04789603 0.04625288 0.03000000
v -0.04629874 -0.04788459 0.03000000
v -0.04657030 -0.04780056 0.03000000
v -0.04599089 -0.04794786 0.03000000
v 0.04699811 0.04759767 0.03000000
v 0.04500000 0.04800000 0.03000000
v 0.04556048 0.04799072 0.03000000
v -0.04657030 0.04780056 0.03000000
v -0.04772122 0.04676395 0.03000000
v -0.04789603 -0.04625288 0.03000000
v -0.04781610 -0.04652656 0.03000000
v -0.04680424 -0.04770233 0.03000000
v 0.04599089 -0.04794786 0.03000000
v 0.04629874 -0.04788459 0.03000000
v 0.04789603 0.04625288 0.03000000
v 0.04781610 0.04652656 0.03000000
v 0.04715512 0.04749193 0.03000000
v -0.04500000 0.04800000 0.03000000
v -0.04556048 0.04799072 0.03000000
v -0.04680424 0.04770233 0.03000000
v -0.04761854 0.04696294 0.03000000
v -0.04795469 0.04594533 0.03000000
v -0.04800000 0.04500000 0.03000000
v -0.04799295 0.04551242 0.03000000
v -0.04800000 -0.04500000 0.03000000
v -0.04799295 -0.04551242 0.03000000
v -0.04795469 -0.04594533 0.03000000
v -0.04772122 -0.04676395 0.03000000
v -0.04699811 -0.04759767 0.03000000
v -0.04500000 -0.04800000 0.03000000
v -0.04556048 -0.04799072 0.03000000
v 0.04657030 -0.04780056 0.03000000
v 0.04781610 -0.04652656 0.03000000
v 0.04789603 -0.04625288 0.03000000
v 0.04795469 0.04594533 0.03000000
v 0.04772122 0.04676395 0.03000000
v 0.04728371 0.04738559 0.03000000
v -0.04699811 0.04759767 0.03000000
v -0.04751277 0.04712672 0.03000000
v -0.04761854 -0.04696294 0.03000000
v -0.04715512 -0.04749193 0.03000000
v 0.04500000 -0.04800000 0.03000000
v 0.04556048 -0.04799072 0.03000000
v 0.04680424 -0.04770233 0.03000000
v 0.04772122 -0.04676395 0.03000000
v 0.04761854 0.04696294 0.03000000
v 0.04740362 0.04726365 0.03000000
v -0.04715512 0.04749193 0.03000000
v -0.04740362 0.04726365 0.03000000
v -0.04751277 -0.04712672 0.03000000
v -0.04728371 -0.04738559 0.03000000
v 0.04699811 -0.04759767 0.03000000
v 0.04761854 -0.04696294 0.03000000
v 0.04795469 -0.04594533 0.03000000
v 0.04751277 0.04712672 0.03000000
v -0.04728371 0.04738559 0.03000000
v -0.04740362 -0.04726365 0.03000000
v 0.04715512 -0.04749193 0.03000000
v 0.04751277 -0.04712672 0.03000000
v 0.04800000 -0.04500000 0.03000000
v 0.04799295 -0.04551242 0.03000000
v 0.04799295 0.04551242 0.03000000
v 0.04728371 -0.04738559 0.03000000
v 0.04740362 -0.04726365 0.03000000
v 0.04800000 0.04500000 0.03000000
v 0.04500000 0.04800000 0.00200000
v -0.04500000 0.04800000 0.00200000
v 0.04751277 -0.04712672 0.00200000
v 0.04715512 -0.04749193 0.00200000
v 0.04728371 -0.04738559 0.00200000
v -0.04751277 0.04712672 0.00200000
v -0.04715512 0.04749193 0.00200000
v -0.04728371 0.04738559 0.00200000
v 0.04740362 -0.04726365 0.00200000
v -0.04751277 -0.04712672 0.00200000
v -0.04740362 -0.04726365 0.00200000
v -0.04728371 -0.04738559 0.00200000
v -0.04740362 0.04726365 0.00200000
v 0.04751277 0.04712672 0.00200000
v 0.04740362 0.04726365 0.00200000
v 0.04728371 0.04738559 0.00200000
v 0.04761854 -0.04696294 0.00200000
v 0.04699811 -0.04759767 0.00200000
v -0.04715512 -0.04749193 0.00200000
v -0.04761854 -0.04696294 0.00200000
v -0.04761854 0.04696294 0.00200000
v -0.04699811 0.04759767 0.00200000
v 0.04715512 0.04749193 0.00200000
v 0.04761854 0.04696294 0.00200000
v 0.04680424 -0.04770233 0.00200000
v -0.04680424 0.04770233 0.00200000
v 0.04657030 -0.04780056 0.00200000
v -0.04699811 -0.04759767 0.00200000
v -0.04657030 0.04780056 0.00200000
v 0.04699811 0.04759767 0.00200000
v 0.04629874 -0.04788459 0.00200000
v 0.04556048 -0.04799072 0.00200000
v 0.04599089 -0.04794786 0.00200000
v -0.04680424 -0.04770233 0.00200000
v -0.04629874 0.04788459 0.00200000
v -0.04556048 0.04799072 0.00200000
v -0.04599089 0.04794786 0.00200000
v 0.04680424 0.04770233 0.00200000
v -0.04629874 -0.04788459 0.00200000
v -0.04599089 -0.04794786 0.00200000
v -0.04657030 -0.04780056 0.00200000
v 0.04629874 0.04788459 0.00200000
v 0.04599089 0.04794786 0.00200000
v 0.04657030 0.04780056 0.00200000
v 0.04772122 -0.04676395 0.00200000
v -0.04556048 -0.04799072 0.00200000
v -0.04772122 -0.04676395 0.00200000
v -0.04772122 0.04676395 0.00200000
v 0.04556048 0.04799072 0.00200000
v 0.04772122 0.04676395 0.00200000
v 0.04789603 -0.04625288 0.00200000
v 0.04795469 -0.04594533 0.00200000
v 0.04781610 -0.04652656 0.00200000
v -0.04781610 -0.04652656 0.00200000
v -0.04789603 0.04625288 0.00200000
v -0.04795469 0.04594533 0.00200000
v -0.04781610 0.04652656 0.00200000
v 0.04781610 0.04652656 0.00200000
v -0.04789603 -0.04625288 0.00200000
v -0.04799295 -0.04551242 0.00200000
v -0.04795469 -0.04594533 0.00200000
v 0.04789603 0.04625288 0.00200000
v 0.04799295 0.04551242 0.00200000
v 0.04795469 0.04594533 0.00200000
v 0.04799295 -0.04551242 0.00200000
v 0.04500000 -0.04800000 0.00200000
v -0.04799295 0.04551242 0.00200000
v 0.04800000 -0.04500000 0.00200000
v -0.04800000 -0.04500000 0.00200000
v -0.04500000 -0.04800000 0.00200000
v -0.04800000 0.04500000 0.00200000
v 0.04800000 0.04500000 0.00200000
f 1 2 3
f 3 4 1
f 5 4 6
f 4 3 6
f 7 8 9
f 10 9 8
f 8 5 10
f 11 12 13
f 14 13 12
f 12 7 14
f 15 16 17
f 18 17 16
f 16 11 18
f 19 20 21
f 22 21 20
f 20 15 22
f 23 24 25
f 26 25 24
f 24 19 26
f 27 28 29
f 30 29 28
f 28 23 30
f 31 32 33
f 27 34 35
f 35 33 27
f 36 37 38
f 32 31 39
f 39 38 32
f 40 41 42
f 37 36 43
f 43 42 37
f 44 45 46
f 40 46 45
f 45 41 40
f 47 48 49
f 50 49 48
f 48 44 50
f 51 52 53
f 54 53 52
f 52 47 54
f 55 56 57
f 58 57 56
f 56 51 58
f 59 60 61
f 62 61 60
f 60 55 62
f 63 64 65
f 66 65 64
f 64 59 66
f 67 68 69
f 68 70 69
f 69 63 67
f 65 67 63
f 61 66 59
f 57 62 55
f 53 58 51
f 49 54 47
f 46 50 44
f 42 43 40
f 38 39 36
f 33 35 31
f 29 34 27
f 25 30 23
f 21 26 19
f 17 22 15
f 13 18 11
f 9 14 7
f 6 10 5
f 70 68 71
f 71 72 70
f 73 74 75
f 74 76 75
f 77 78 79
f 80 79 78
f 78 73 80
f 81 82 83
f 84 83 82
f 82 77 84
f 85 86 87
f 88 87 86
f 86 81 88
f 89 90 91
f 92 91 90
f 90 85 92
f 93 94 95
f 96 95 94
f 94 89 96
f 97 98 99
f 100 99 98
f 98 93 100
f 101 102 103
f 97 104 105
f 105 103 97
f 106 107 108
f 102 101 109
f 109 108 102
f 110 111 112
f 107 106 113
f 113 112 107
f 114 115 116
f 110 116 115
f 115 111 110
f 117 118 119
f 120 119 118
f 118 114 120
f 121 122 123
f 124 123 122
f 122 117 124
f 125 126 127
f 128 127 126
f 126 121 128
f 129 130 131
f 132 131 130
f 130 125 132
f 133 134 135
f 136 135 134
f 134 129 136
f 137 72 138
f 72 71 138
f 138 133 137
f 135 137 133
f 131 136 129
f 127 132 125
f 123 128 121
f 119 124 117
f 116 120 114
f 112 113 110
f 108 109 106
f 103 105 101
f 99 104 97
f 95 100 93
f 91 96 89
f 87 92 85
f 83 88 81
f 79 84 77
f 75 80 73
f 139 140 76
f 76 74 139
f 37 141 1
f 142 96 76
f 143 51 56
f 1 4 37
f 141 144 145
f 72 146 147
f 72 148 149
f 110 150 151
f 76 140 142
f 96 80 75
f 143 47 51
f 143 41 45
f 11 32 38
f 11 27 33
f 23 15 19
f 37 7 12
f 37 5 8
f 145 1 141
f 141 152 153
f 141 154 155
f 37 156 157
f 158 128 123
f 158 136 131
f 72 159 146
f 72 160 148
f 110 161 150
f 110 162 163
f 164 165 166
f 164 167 168
f 169 170 171
f 142 172 173
f 142 174 175
f 75 76 96
f 96 84 79
f 96 91 92
f 142 106 109
f 143 55 60
f 47 52 51
f 143 44 48
f 143 37 41
f 33 32 11
f 11 23 28
f 15 20 19
f 11 16 15
f 8 7 37
f 153 144 141
f 152 141 176
f 155 176 141
f 37 177 178
f 37 143 156
f 158 132 128
f 158 137 136
f 159 179 146
f 160 180 148
f 110 181 182
f 161 183 150
f 110 184 185
f 110 142 162
f 168 165 164
f 164 169 186
f 170 187 171
f 164 188 170
f 175 172 142
f 79 80 96
f 84 96 88
f 92 88 96
f 142 100 95
f 142 110 106
f 143 59 64
f 56 55 143
f 45 44 143
f 28 27 11
f 15 23 11
f 4 5 37
f 155 189 176
f 37 190 177
f 37 191 192
f 143 193 156
f 72 194 195
f 132 127 128
f 137 135 136
f 149 159 72
f 158 160 72
f 110 196 197
f 151 181 110
f 163 184 110
f 186 167 164
f 170 169 164
f 140 174 142
f 92 87 88
f 142 104 100
f 142 101 105
f 110 113 106
f 143 63 69
f 60 59 143
f 37 42 41
f 19 24 23
f 176 198 152
f 190 199 177
f 157 191 37
f 158 120 116
f 72 200 194
f 131 132 158
f 72 137 158
f 110 201 202
f 182 196 110
f 142 203 162
f 171 204 169
f 88 83 84
f 104 99 100
f 109 101 142
f 69 70 143
f 48 47 143
f 12 11 37
f 192 190 37
f 158 124 120
f 200 205 194
f 147 200 72
f 202 206 110
f 185 161 110
f 173 164 142
f 105 104 142
f 64 63 143
f 178 141 37
f 124 119 120
f 123 124 158
f 197 201 110
f 95 96 142
f 38 37 11
f 195 143 72
f 166 142 164
f 116 110 158
f 70 72 143
f 206 158 110
f 207 158 206
f 206 208 207
f 174 140 209
f 140 139 209
f 172 175 210
f 211 210 175
f 175 174 211
f 164 173 212
f 213 212 173
f 173 172 213
f 170 188 214
f 215 214 188
f 188 164 215
f 171 187 216
f 217 216 187
f 187 170 217
f 169 204 218
f 219 218 204
f 204 171 219
f 167 186 220
f 221 220 186
f 186 169 221
f 222 165 168
f 167 223 224
f 224 168 167
f 225 142 166
f 165 222 226
f 226 166 165
f 227 162 203
f 142 225 228
f 228 203 142
f 184 163 229
f 227 229 163
f 163 162 227
f 161 185 230
f 231 230 185
f 185 184 231
f 150 183 232
f 233 232 183
f 183 161 233
f 181 151 234
f 235 234 151
f 151 150 235
f 196 182 236
f 237 236 182
f 182 181 237
f 201 197 238
f 239 238 197
f 197 196 239
f 240 208 202
f 208 206 202
f 202 201 240
f 238 240 201
f 236 239 196
f 234 237 181
f 232 235 150
f 230 233 161
f 229 231 184
f 203 228 227
f 166 226 225
f 168 224 222
f 220 223 167
f 218 221 169
f 216 219 171
f 214 217 170
f 212 215 164
f 210 213 172
f 209 211 174
f 241 2 145
f 2 1 145
f 242 243 153
f 144 153 243
f 243 241 144
f 244 245 198
f 152 198 245
f 245 242 152
f 246 247 189
f 176 189 247
f 247 244 176
f 248 249 154
f 155 154 249
f 249 246 155
f 250 251 178
f 141 178 251
f 251 248 141
f 252 253 199
f 177 199 253
f 253 250 177
f 191 254 255
f 252 190 192
f 192 255 252
f 156 256 257
f 254 191 157
f 157 257 254
f 143 258 259
f 256 156 193
f 193 259 256
f 260 261 195
f 143 195 261
f 261 258 143
f 262 263 205
f 194 205 263
f 263 260 194
f 264 265 147
f 200 147 265
f 265 262 200
f 266 267 179
f 146 179 267
f 267 264 146
f 268 269 149
f 159 149 269
f 269 266 159
f 270 271 180
f 148 180 271
f 271 268 148
f 160 158 272
f 158 207 272
f 272 270 160
f 180 160 270
f 149 148 268
f 179 159 266
f 147 146 264
f 205 200 262
f 195 194 260
f 259 193 143
f 257 157 156
f 255 192 191
f 199 190 252
f 178 177 250
f 154 141 248
f 189 155 246
f 198 176 244
f 153 152 242
f 145 144 241
f 273 274 22
f 275 273 18
f 274 276 26
f 22 17 273
f 18 13 275
f 277 245 244
f 278 247 246
f 279 267 266
f 280 269 268
f 281 282 217
f 283 281 215
f 276 284 30
f 26 21 274
f 13 14 275
f 285 286 10
f 244 278 277
f 246 287 278
f 287 249 248
f 288 265 264
f 279 264 267
f 280 266 269
f 236 237 289
f 234 235 290
f 282 291 219
f 217 214 281
f 215 212 283
f 292 82 81
f 293 86 85
f 61 62 294
f 57 58 295
f 284 296 34
f 30 25 276
f 17 18 273
f 10 6 285
f 297 285 3
f 243 277 298
f 246 249 287
f 248 299 287
f 299 251 250
f 300 263 262
f 288 262 265
f 268 301 280
f 272 302 303
f 207 208 304
f 208 240 305
f 306 239 236
f 289 237 234
f 232 233 307
f 291 308 221
f 219 216 282
f 212 213 283
f 309 310 211
f 81 293 292
f 85 311 293
f 311 90 89
f 312 126 125
f 313 130 129
f 314 66 61
f 294 62 57
f 53 54 315
f 296 316 31
f 34 29 284
f 21 22 274
f 3 2 297
f 297 2 241
f 298 241 243
f 248 251 299
f 250 317 299
f 318 261 260
f 300 260 263
f 266 280 279
f 301 271 270
f 303 270 272
f 305 304 208
f 290 289 234
f 290 235 232
f 319 307 233
f 308 320 223
f 221 218 291
f 214 215 281
f 211 209 309
f 321 309 139
f 78 292 322
f 85 90 311
f 89 323 311
f 323 94 93
f 324 122 121
f 312 121 126
f 313 125 130
f 295 294 57
f 295 58 53
f 325 315 54
f 316 326 36
f 31 35 296
f 25 26 276
f 9 10 286
f 241 298 297
f 243 242 277
f 250 253 317
f 317 253 252
f 327 255 254
f 328 259 258
f 318 258 261
f 264 279 288
f 301 268 271
f 304 302 207
f 306 305 240
f 307 290 232
f 233 230 319
f 229 227 329
f 320 330 222
f 223 220 308
f 216 217 282
f 139 74 321
f 321 74 73
f 322 73 78
f 89 94 323
f 93 331 323
f 332 118 117
f 324 117 122
f 129 333 313
f 315 295 53
f 54 49 325
f 46 40 334
f 36 39 316
f 29 30 284
f 275 14 9
f 242 245 277
f 252 327 317
f 327 252 255
f 335 257 256
f 328 256 259
f 262 288 300
f 272 207 302
f 240 238 306
f 230 231 319
f 319 231 229
f 336 329 227
f 330 336 225
f 222 224 320
f 218 219 291
f 210 211 310
f 73 322 321
f 78 77 292
f 93 98 331
f 331 98 97
f 337 103 102
f 338 115 114
f 332 114 118
f 125 313 312
f 138 339 340
f 314 341 67
f 49 50 325
f 325 50 46
f 326 334 40
f 35 34 296
f 6 3 285
f 254 335 327
f 335 254 257
f 260 300 318
f 238 239 306
f 329 319 229
f 227 228 336
f 225 226 330
f 220 221 308
f 283 213 210
f 77 82 292
f 97 337 331
f 337 97 103
f 342 108 107
f 343 112 111
f 338 111 115
f 121 312 324
f 333 134 133
f 340 133 138
f 344 339 71
f 68 67 341
f 67 65 314
f 334 325 46
f 40 43 326
f 286 275 9
f 256 328 335
f 270 303 301
f 228 225 336
f 224 223 320
f 209 139 309
f 102 342 337
f 342 102 108
f 343 107 112
f 117 324 332
f 333 129 134
f 71 68 344
f 65 66 314
f 43 36 326
f 244 247 278
f 289 306 236
f 310 283 210
f 107 343 342
f 114 332 338
f 138 71 339
f 294 314 61
f 258 318 328
f 81 86 293
f 133 340 333
f 39 31 316
f 111 338 343
f 226 222 330
f 341 344 68
f 345 285 297
f 297 346 345
f 347 348 349
f 350 351 352
f 349 353 347
f 354 355 356
f 352 357 350
f 358 359 360
f 361 362 348
f 363 364 354
f 365 366 351
f 367 368 358
f 361 369 362
f 356 363 354
f 365 370 366
f 360 367 358
f 361 371 369
f 363 372 364
f 365 373 370
f 367 374 368
f 361 375 371
f 361 376 377
f 372 378 364
f 365 379 373
f 365 380 381
f 374 382 368
f 377 375 361
f 364 383 384
f 378 385 364
f 381 379 365
f 368 386 387
f 382 388 368
f 347 361 348
f 385 383 364
f 350 365 351
f 388 386 368
f 361 389 376
f 390 391 364
f 365 392 380
f 393 394 368
f 376 395 396
f 389 397 376
f 390 398 391
f 380 399 400
f 392 401 380
f 393 402 394
f 397 395 376
f 390 403 398
f 390 404 405
f 401 399 380
f 393 406 402
f 393 407 408
f 409 410 376
f 405 403 390
f 411 346 380
f 408 406 393
f 396 409 376
f 412 413 414
f 384 390 364
f 400 411 380
f 415 416 345
f 387 393 368
f 414 410 412
f 414 413 404
f 345 346 415
f 345 416 407
f 390 414 404
f 415 413 412
f 393 345 407
f 412 416 415
f 409 412 410
f 411 415 346
f 304 413 415
f 415 302 304
f 321 410 414
f 414 309 321
f 412 339 344
f 344 416 412
f 340 339 412
f 396 333 340
f 395 313 333
f 397 312 313
f 389 324 312
f 361 332 324
f 347 338 332
f 353 343 338
f 349 342 343
f 348 337 342
f 362 331 337
f 369 323 331
f 371 311 323
f 375 293 311
f 377 292 293
f 376 322 292
f 322 376 410
f 410 321 322
f 292 377 376
f 293 375 377
f 311 371 375
f 323 369 371
f 331 362 369
f 337 348 362
f 342 349 348
f 343 353 349
f 338 347 353
f 332 361 347
f 324 389 361
f 312 397 389
f 313 395 397
f 333 396 395
f 340 409 396
f 412 409 340
f 305 404 413
f 306 405 404
f 289 403 405
f 290 398 403
f 307 391 398
f 319 364 391
f 329 354 364
f 336 355 354
f 330 356 355
f 320 363 356
f 308 372 363
f 291 378 372
f 282 385 378
f 281 383 385
f 283 384 383
f 390 384 283
f 310 309 414
f 414 390 310
f 283 310 390
f 383 281 283
f 385 282 281
f 378 291 282
f 372 308 291
f 363 320 308
f 356 330 320
f 355 336 330
f 354 329 336
f 364 319 329
f 391 307 319
f 398 290 307
f 403 289 290
f 405 306 289
f 404 305 306
f 413 304 305
f 341 407 416
f 314 408 407
f 294 406 408
f 295 402 406
f 315 394 402
f 325 368 394
f 334 358 368
f 326 359 358
f 316 360 359
f 296 367 360
f 284 374 367
f 276 382 374
f 274 388 382
f 273 386 388
f 275 387 386
f 393 387 275
f 286 285 345
f 345 393 286
f 275 286 393
f 386 273 275
f 388 274 273
f 382 276 274
f 374 284 276
f 367 296 284
f 360 316 296
f 359 326 316
f 358 334 326
f 368 325 334
f 394 315 325
f 402 295 315
f 406 294 295
f 408 314 294
f 407 341 314
f 416 344 341
f 303 302 415
f 400 301 303
f 399 280 301
f 401 279 280
f 392 288 279
f 365 300 288
f 350 318 300
f 357 328 318
f 352 335 328
f 351 327 335
f 366 317 327
f 370 299 317
f 373 287 299
f 379 278 287
f 381 277 278
f 380 298 277
f 298 380 346
f 346 297 298
f 277 381 380
f 278 379 381
f 287 373 379
f 299 370 373
f 317 366 370
f 327 351 366
f 335 352 351
f 328 357 352
f 318 350 357
f 300 365 350
f 288 392 365
f 279 401 392
f 280 399 401
f 301 400 399
f 303 411 400
f 415 411 303

